<svg width="627" height="689" viewBox="0 0 627 689" fill="none" xmlns="http://www.w3.org/2000/svg">
<path d="M589.823 346.684C589.823 350.791 587.844 354.852 583.968 358.831C580.091 362.811 574.347 366.674 566.905 370.37C552.025 377.76 530.459 384.43 503.77 390.036C450.399 401.247 376.644 408.185 295.162 408.185C213.679 408.185 139.924 401.247 86.5536 390.036C59.8641 384.43 38.2986 377.76 23.4177 370.37C15.9763 366.674 10.2322 362.811 6.35479 358.831C2.47917 354.852 0.5 350.791 0.5 346.684C0.5 342.577 2.47917 338.516 6.35479 334.537C10.2322 330.557 15.9763 326.694 23.4177 322.998C38.2986 315.608 59.8641 308.938 86.5536 303.332C139.924 292.121 213.679 285.183 295.162 285.183C376.644 285.183 450.399 292.121 503.77 303.332C530.459 308.938 552.025 315.608 566.905 322.998C574.347 326.694 580.091 330.557 583.968 334.537C587.844 338.516 589.823 342.577 589.823 346.684Z" stroke="black"/>
<path d="M589.823 390.347C589.823 394.454 587.844 398.515 583.968 402.493C580.091 406.473 574.347 410.337 566.905 414.033C552.025 421.423 530.459 428.093 503.77 433.699C450.399 444.91 376.644 451.848 295.162 451.848C213.679 451.848 139.924 444.91 86.5536 433.699C59.8641 428.093 38.2986 421.423 23.4177 414.033C15.9763 410.337 10.2322 406.473 6.35479 402.493C2.47917 398.515 0.5 394.454 0.5 390.347C0.5 386.239 2.47917 382.179 6.35479 378.2C10.2322 374.22 15.9763 370.356 23.4177 366.661C38.2986 359.27 59.8641 352.601 86.5536 346.994C139.924 335.783 213.679 328.845 295.162 328.845C376.644 328.845 450.399 335.783 503.77 346.994C530.459 352.601 552.025 359.27 566.905 366.661C574.347 370.356 580.091 374.22 583.968 378.2C587.844 382.179 589.823 386.239 589.823 390.347Z" stroke="black"/>
<path d="M589.823 434.01C589.823 438.117 587.844 442.178 583.968 446.156C580.091 450.137 574.347 454 566.905 457.696C552.025 465.086 530.459 471.756 503.77 477.362C450.399 488.573 376.644 495.511 295.162 495.511C213.679 495.511 139.924 488.573 86.5536 477.362C59.8641 471.756 38.2986 465.086 23.4177 457.696C15.9763 454 10.2322 450.137 6.35479 446.156C2.47917 442.178 0.5 438.117 0.5 434.01C0.5 429.902 2.47917 425.842 6.35479 421.863C10.2322 417.883 15.9763 414.019 23.4177 410.324C38.2986 402.933 59.8641 396.264 86.5536 390.657C139.924 379.446 213.679 372.508 295.162 372.508C376.644 372.508 450.399 379.446 503.77 390.657C530.459 396.264 552.025 402.933 566.905 410.324C574.347 414.019 580.091 417.883 583.968 421.863C587.844 425.842 589.823 429.902 589.823 434.01Z" stroke="black"/>
<path d="M441.089 116.301L441.257 117.207L441.925 116.573L525.703 37.0758L475.986 141.32L475.59 142.151L476.503 142.031L591.008 126.96L489.513 182.072L488.704 182.511L489.513 182.951L591.008 238.062L476.503 222.992L475.59 222.872L475.986 223.703L525.703 327.946L441.925 248.449L441.257 247.816L441.089 248.721L420.038 362.279L398.988 248.721L398.82 247.816L398.152 248.449L314.374 327.947L364.091 223.703L364.487 222.872L363.574 222.992L249.069 238.062L350.564 182.951L351.373 182.511L350.564 182.072L249.069 126.96L363.574 142.031L364.487 142.151L364.091 141.32L314.374 37.0758L398.152 116.573L398.82 117.207L398.988 116.301L420.038 2.74317L441.089 116.301Z" stroke="black"/>
<path d="M483.785 309.134L514.854 387.832L595.754 363.056L553.597 436.414L623.409 484.216L539.77 496.995L545.923 581.38L483.785 523.956L421.646 581.38L427.8 496.995L344.161 484.216L413.973 436.414L371.815 363.056L452.716 387.832L483.785 309.134Z" fill="#D9D9D9"/>
<path d="M195.949 534.613L236.014 461.081L276.401 534.613L349.772 574.839L276.401 615.065L236.014 688.597L195.949 615.065L122.256 574.839L195.949 534.613Z" fill="#B9FF66"/>
<circle cx="266.345" cy="325.726" r="108.657" fill="black" stroke="black"/>
<ellipse cx="230.539" cy="302.148" rx="17.4652" ry="34.9304" fill="white"/>
<ellipse cx="302.147" cy="302.148" rx="17.4652" ry="34.9304" fill="white"/>
</svg>
