<svg width="606" height="266" viewBox="0 0 606 266" fill="none" xmlns="http://www.w3.org/2000/svg">
<path d="M45 1H561C585.301 1 605 20.6995 605 45V192.952C605 217.252 585.281 236.952 560.979 236.952H559.839H558.7H557.563H556.427H555.293H554.16H553.029H551.899H550.771H549.644H548.519H547.395H546.273H545.152H544.033H542.915H541.799H540.684H539.571H538.459H537.348H536.239H535.132H534.026H532.921H531.817H530.716H529.615H528.516H527.418H526.322H525.227H524.133H523.041H521.95H520.86H519.772H518.685H517.6H516.515H515.432H514.351H513.271H512.192H511.114H510.037H508.962H507.888H506.816H505.745H504.675H503.606H502.538H501.472H500.407H499.343H498.28H497.219H496.159H495.1H494.042H492.986H491.93H490.876H489.823H488.771H487.72H486.671H485.622H484.575H483.529H482.484H481.44H480.397H479.356H478.315H477.276H476.237H475.2H474.164H473.129H472.095H471.062H470.03H468.999H467.969H466.94H465.913H464.886H463.86H462.835H461.812H460.789H459.767H458.747H457.727H456.708H455.691H454.674H453.658H452.643H451.629H450.616H449.604H448.593H447.583H446.574H445.565H444.558H443.551H442.546H441.541H440.537H439.534H438.532H437.53H436.53H435.53H434.532H433.534H432.537H431.54H430.545H429.55H428.556H427.563H426.571H425.58H424.589H423.599H422.61H421.622H420.634H419.647H418.661H417.676H416.691H415.707H414.724H413.742H412.76H411.779H410.799H409.819H408.84H407.862H406.884H405.907H404.931H403.955H402.98H402.006H401.032H400.059H399.087H398.115H397.144H396.173H395.203H394.234H393.265H392.297H391.329H390.362H389.395H388.429H387.464H386.499H385.535H384.571H383.607H382.645H381.682H380.721H379.759H378.799H377.838H376.879H375.919H374.96H374.002H373.044H372.087H371.13H370.173H369.217H368.261H367.306H366.351H365.396H364.442H363.489H362.535H361.582H360.63H359.678H358.726H357.775H356.823H355.873H354.922H353.972H353.023H352.073H351.124H350.175H349.227H348.279H347.331H346.383H345.436H344.489H343.542H342.596H341.65H340.704H339.758H338.812H337.867H336.922H335.977H335.033H334.088H333.144H332.2H331.256H330.313H329.369H328.426H327.483H326.54H325.597H324.655H323.712H322.77H321.827H320.885H319.943H319.001H318.06H317.118H316.176H315.235H314.293H313.352H312.411H311.469H310.528H309.587H308.646H307.705H306.764H305.823H304.882H303.941H303H302.059H301.118H300.177H299.236H298.295H297.354H296.413H295.472H294.531H293.589H292.648H291.707H290.765H289.824H288.882H287.94H286.999H286.057H285.115H284.173H283.23H282.288H281.345H280.403H279.46H278.517H277.574H276.631H275.687H274.744H273.8H272.856H271.912H270.967H270.023H269.078H268.133H267.188H266.242H265.296H264.35H263.404H262.458H261.511H260.564H259.617H258.669H257.721H256.773H255.825H254.876H253.927H252.977H252.028H251.078H250.127H249.176H248.225H247.274H246.322H245.37H244.418H243.465H242.511H241.558H240.604H239.649H238.694H237.739H236.783H235.827H234.87H233.913H232.956H231.998H231.04H230.081H229.121H228.162H227.201H226.241H225.279H224.318H223.355H222.393H221.429H220.465H219.501H218.536H217.571H216.605H215.638H214.671H213.703H212.735H211.766H210.797H209.827H208.856H207.885H206.913H205.941H204.968H203.994H203.02H202.045H201.069H200.093H199.116H198.138H197.16H196.181H195.201H194.221H193.24H192.258H191.276H190.293H189.309H188.324H187.339H186.353H185.366H184.378H183.39H182.401H181.411H180.42H179.429H178.437H177.444H176.45H175.455H174.46H173.463H172.466H171.468H170.47H169.47H168.47H167.468H166.466H165.463H164.459H163.454H162.449H161.442H160.435H159.426H158.417H157.407H156.396H155.384H154.371H153.357H152.342H151.326H150.309H149.292H148.273H147.253H146.233H145.211H144.188H143.165H142.14H141.114H140.087H139.06H138.031H137.001H135.97H134.938H133.905H132.871H131.836H130.8H129.763H128.724H127.685H126.644H125.603H124.56H123.516H122.471H121.425H120.378H119.329H118.28H117.229H116.177H115.124H114.07H113.014H111.958H110.9H109.841H108.781H107.72H106.657H105.593H104.528H103.462H102.394H101.325H100.255H99.184H98.1115H97.0376H95.9625H94.8861H93.8084H92.7295H91.6492H90.5676H89.4847H88.4004H87.3149H86.228H85.1398H84.0502H82.9593H81.867H80.7734H79.6783H78.582H77.4842H76.385H75.2845H74.1825H73.0792H71.9744H70.8682H69.7606H68.6516H67.5411H66.4292H65.3158H64.201H63.0847H61.9669H60.8477H59.727H58.6048H57.4811H56.356H55.2293H54.1011H52.9714H51.8401H50.7074H49.5731H48.4373H47.2999H46.1609H45.0204C20.7193 236.952 1 217.252 1 192.952V45C1 20.6995 20.6995 1 45 1Z" stroke="#B9FF66" stroke-width="2"/>
<path d="M108.384 237.821L83 264.548L57.6161 237.821L108.384 237.821Z" fill="#191A23" stroke="#B9FF66" stroke-width="2"/>
</svg>
